<svg xmlns="http://www.w3.org/2000/svg" width="920" height="420" viewBox="0 0 920 420">
  <rect width="100%" height="100%" rx="22" fill="#111722"></rect>
  <text x="72" y="34" font-size="24" font-weight="700" fill="#f5f7fb">Decode Compute Bubble Density</text>
  <text x="72" y="56" font-size="13" fill="#9fb0c3">把 compute wait-front / reserve-back counter 归一化到 kernel wall time；这是 stall-density，不是 wall-time share。</text>
  <rect x="72" y="66" width="12" height="12" rx="3" fill="#ff595e"></rect><text x="90" y="76" font-size="13" fill="#dfe7f1">wait-front / kernel</text><rect x="268" y="66" width="12" height="12" rx="3" fill="#ffca3a"></rect><text x="286" y="76" font-size="13" fill="#dfe7f1">reserve-back / kernel</text><rect x="480" y="66" width="12" height="12" rx="3" fill="#5c7cfa"></rect><text x="498" y="76" font-size="13" fill="#dfe7f1">total bubble / kernel</text>
  <line x1="72" y1="352.00" x2="892" y2="352.00" stroke="#273142" stroke-width="1"></line><text x="60" y="356.00" text-anchor="end" font-size="12" fill="#9fb0c3">0.0x</text><line x1="72" y1="283.00" x2="892" y2="283.00" stroke="#273142" stroke-width="1"></line><text x="60" y="287.00" text-anchor="end" font-size="12" fill="#9fb0c3">0.8x</text><line x1="72" y1="214.00" x2="892" y2="214.00" stroke="#273142" stroke-width="1"></line><text x="60" y="218.00" text-anchor="end" font-size="12" fill="#9fb0c3">1.7x</text><line x1="72" y1="145.00" x2="892" y2="145.00" stroke="#273142" stroke-width="1"></line><text x="60" y="149.00" text-anchor="end" font-size="12" fill="#9fb0c3">2.5x</text><line x1="72" y1="76.00" x2="892" y2="76.00" stroke="#273142" stroke-width="1"></line><text x="60" y="80.00" text-anchor="end" font-size="12" fill="#9fb0c3">3.3x</text>
  <line x1="72" y1="352" x2="892" y2="352" stroke="#5b6b80" stroke-width="1.2"></line><line x1="72" y1="76" x2="72" y2="352" stroke="#5b6b80" stroke-width="1.2"></line><text x="20" y="214.00" transform="rotate(-90 20 214.00)" font-size="13" fill="#c7d2df">counter / kernel</text><text x="72.00" y="394" text-anchor="middle" font-size="12" fill="#c7d2df">256</text><text x="189.14" y="394" text-anchor="middle" font-size="12" fill="#c7d2df">512</text><text x="306.29" y="394" text-anchor="middle" font-size="12" fill="#c7d2df">1k</text><text x="423.43" y="394" text-anchor="middle" font-size="12" fill="#c7d2df">2k</text><text x="540.57" y="394" text-anchor="middle" font-size="12" fill="#c7d2df">4k</text><text x="657.71" y="394" text-anchor="middle" font-size="12" fill="#c7d2df">8k</text><text x="774.86" y="394" text-anchor="middle" font-size="12" fill="#c7d2df">16k</text><text x="892.00" y="394" text-anchor="middle" font-size="12" fill="#c7d2df">32k</text>
  <path d="M 72.00 230.96 L 189.14 124.24 L 306.29 146.73 L 423.43 173.91 L 540.57 195.72 L 657.71 211.01 L 774.86 287.73 L 892.00 289.74" fill="none" stroke="#ff595e" stroke-width="3" stroke-linecap="round" stroke-linejoin="round"></path><circle cx="72.00" cy="230.96" r="4.5" fill="#ff595e" stroke="#10151d" stroke-width="1.5"></circle><circle cx="189.14" cy="124.24" r="4.5" fill="#ff595e" stroke="#10151d" stroke-width="1.5"></circle><circle cx="306.29" cy="146.73" r="4.5" fill="#ff595e" stroke="#10151d" stroke-width="1.5"></circle><circle cx="423.43" cy="173.91" r="4.5" fill="#ff595e" stroke="#10151d" stroke-width="1.5"></circle><circle cx="540.57" cy="195.72" r="4.5" fill="#ff595e" stroke="#10151d" stroke-width="1.5"></circle><circle cx="657.71" cy="211.01" r="4.5" fill="#ff595e" stroke="#10151d" stroke-width="1.5"></circle><circle cx="774.86" cy="287.73" r="4.5" fill="#ff595e" stroke="#10151d" stroke-width="1.5"></circle><circle cx="892.00" cy="289.74" r="4.5" fill="#ff595e" stroke="#10151d" stroke-width="1.5"></circle><path d="M 72.00 334.62 L 189.14 324.20 L 306.29 318.91 L 423.43 312.99 L 540.57 308.22 L 657.71 304.49 L 774.86 326.96 L 892.00 326.46" fill="none" stroke="#ffca3a" stroke-width="3" stroke-linecap="round" stroke-linejoin="round"></path><circle cx="72.00" cy="334.62" r="4.5" fill="#ffca3a" stroke="#10151d" stroke-width="1.5"></circle><circle cx="189.14" cy="324.20" r="4.5" fill="#ffca3a" stroke="#10151d" stroke-width="1.5"></circle><circle cx="306.29" cy="318.91" r="4.5" fill="#ffca3a" stroke="#10151d" stroke-width="1.5"></circle><circle cx="423.43" cy="312.99" r="4.5" fill="#ffca3a" stroke="#10151d" stroke-width="1.5"></circle><circle cx="540.57" cy="308.22" r="4.5" fill="#ffca3a" stroke="#10151d" stroke-width="1.5"></circle><circle cx="657.71" cy="304.49" r="4.5" fill="#ffca3a" stroke="#10151d" stroke-width="1.5"></circle><circle cx="774.86" cy="326.96" r="4.5" fill="#ffca3a" stroke="#10151d" stroke-width="1.5"></circle><circle cx="892.00" cy="326.46" r="4.5" fill="#ffca3a" stroke="#10151d" stroke-width="1.5"></circle><path d="M 72.00 213.58 L 189.14 96.44 L 306.29 113.64 L 423.43 134.90 L 540.57 151.94 L 657.71 163.50 L 774.86 262.69 L 892.00 264.20" fill="none" stroke="#5c7cfa" stroke-width="3" stroke-linecap="round" stroke-linejoin="round"></path><circle cx="72.00" cy="213.58" r="4.5" fill="#5c7cfa" stroke="#10151d" stroke-width="1.5"></circle><circle cx="189.14" cy="96.44" r="4.5" fill="#5c7cfa" stroke="#10151d" stroke-width="1.5"></circle><circle cx="306.29" cy="113.64" r="4.5" fill="#5c7cfa" stroke="#10151d" stroke-width="1.5"></circle><circle cx="423.43" cy="134.90" r="4.5" fill="#5c7cfa" stroke="#10151d" stroke-width="1.5"></circle><circle cx="540.57" cy="151.94" r="4.5" fill="#5c7cfa" stroke="#10151d" stroke-width="1.5"></circle><circle cx="657.71" cy="163.50" r="4.5" fill="#5c7cfa" stroke="#10151d" stroke-width="1.5"></circle><circle cx="774.86" cy="262.69" r="4.5" fill="#5c7cfa" stroke="#10151d" stroke-width="1.5"></circle><circle cx="892.00" cy="264.20" r="4.5" fill="#5c7cfa" stroke="#10151d" stroke-width="1.5"></circle>
</svg>
