<svg xmlns="http://www.w3.org/2000/svg" width="980" height="440" viewBox="0 0 980 440">
  <rect width="100%" height="100%" rx="22" fill="#111722"></rect>
  <text x="76" y="34" font-size="24" font-weight="700" fill="#f5f7fb">Decode Dim Sweep Latency</text>
  <text x="76" y="56" font-size="13" fill="#9fb0c3">固定 `seq_len=8k`，仅变化 value/rope dims；默认其余参数为 `B=1, H=32, H_kv=1, value_dim=512, rope_dim=64, block=64, k_chunk=128, deepseek_q_heads_per_core=8`。</text>
  <rect x="76" y="66" width="12" height="12" rx="3" fill="#6c757d"></rect><text x="94" y="76" font-size="13" fill="#dfe7f1">Reference Attention</text><rect x="272" y="66" width="12" height="12" rx="3" fill="#1982c4"></rect><text x="290" y="76" font-size="13" fill="#dfe7f1">Flash Attention</text><rect x="436" y="66" width="12" height="12" rx="3" fill="#ff595e"></rect><text x="454" y="76" font-size="13" fill="#dfe7f1">FlashMLA (TT Mainline)</text><rect x="656" y="66" width="12" height="12" rx="3" fill="#8ac926"></rect><text x="674" y="76" font-size="13" fill="#dfe7f1">DeepSeek FlashMLA</text>
  <line x1="76" y1="368.00" x2="944" y2="368.00" stroke="#273142" stroke-width="1"></line><text x="64" y="372.00" text-anchor="end" font-size="12" fill="#9fb0c3">0.00</text><line x1="76" y1="296.50" x2="944" y2="296.50" stroke="#273142" stroke-width="1"></line><text x="64" y="300.50" text-anchor="end" font-size="12" fill="#9fb0c3">71.97</text><line x1="76" y1="225.00" x2="944" y2="225.00" stroke="#273142" stroke-width="1"></line><text x="64" y="229.00" text-anchor="end" font-size="12" fill="#9fb0c3">143.95</text><line x1="76" y1="153.50" x2="944" y2="153.50" stroke="#273142" stroke-width="1"></line><text x="64" y="157.50" text-anchor="end" font-size="12" fill="#9fb0c3">215.92</text><line x1="76" y1="82.00" x2="944" y2="82.00" stroke="#273142" stroke-width="1"></line><text x="64" y="86.00" text-anchor="end" font-size="12" fill="#9fb0c3">287.90</text>
  <line x1="76" y1="368" x2="944" y2="368" stroke="#5b6b80" stroke-width="1.2"></line><line x1="76" y1="82" x2="76" y2="368" stroke="#5b6b80" stroke-width="1.2"></line><text x="22" y="225.00" transform="rotate(-90 22 225.00)" font-size="13" fill="#c7d2df">Latency (ms)</text><text x="76.00" y="416" text-anchor="middle" font-size="12" fill="#c7d2df">value=128, rope=64</text><text x="293.00" y="416" text-anchor="middle" font-size="12" fill="#c7d2df">value=192, rope=64</text><text x="510.00" y="416" text-anchor="middle" font-size="12" fill="#c7d2df">value=256, rope=64</text><text x="727.00" y="416" text-anchor="middle" font-size="12" fill="#c7d2df">value=384, rope=64</text><text x="944.00" y="416" text-anchor="middle" font-size="12" fill="#c7d2df">value=512, rope=64</text>
  <path d="M 76.00 297.77 L 293.00 255.77 L 510.00 221.73 L 727.00 158.48 L 944.00 103.19" fill="none" stroke="#6c757d" stroke-width="3" stroke-linecap="round" stroke-linejoin="round"></path><circle cx="76.00" cy="297.77" r="4.5" fill="#6c757d" stroke="#10151d" stroke-width="1.5"></circle><circle cx="293.00" cy="255.77" r="4.5" fill="#6c757d" stroke="#10151d" stroke-width="1.5"></circle><circle cx="510.00" cy="221.73" r="4.5" fill="#6c757d" stroke="#10151d" stroke-width="1.5"></circle><circle cx="727.00" cy="158.48" r="4.5" fill="#6c757d" stroke="#10151d" stroke-width="1.5"></circle><circle cx="944.00" cy="103.19" r="4.5" fill="#6c757d" stroke="#10151d" stroke-width="1.5"></circle><path d="M 76.00 367.75 L 293.00 367.72 L 510.00 367.69 L 727.00 367.66 L 944.00 367.59" fill="none" stroke="#1982c4" stroke-width="3" stroke-linecap="round" stroke-linejoin="round"></path><circle cx="76.00" cy="367.75" r="4.5" fill="#1982c4" stroke="#10151d" stroke-width="1.5"></circle><circle cx="293.00" cy="367.72" r="4.5" fill="#1982c4" stroke="#10151d" stroke-width="1.5"></circle><circle cx="510.00" cy="367.69" r="4.5" fill="#1982c4" stroke="#10151d" stroke-width="1.5"></circle><circle cx="727.00" cy="367.66" r="4.5" fill="#1982c4" stroke="#10151d" stroke-width="1.5"></circle><circle cx="944.00" cy="367.59" r="4.5" fill="#1982c4" stroke="#10151d" stroke-width="1.5"></circle><path d="M 76.00 367.73 L 293.00 367.71 L 510.00 367.68 L 727.00 367.65 L 944.00 367.58" fill="none" stroke="#ff595e" stroke-width="3" stroke-linecap="round" stroke-linejoin="round"></path><circle cx="76.00" cy="367.73" r="4.5" fill="#ff595e" stroke="#10151d" stroke-width="1.5"></circle><circle cx="293.00" cy="367.71" r="4.5" fill="#ff595e" stroke="#10151d" stroke-width="1.5"></circle><circle cx="510.00" cy="367.68" r="4.5" fill="#ff595e" stroke="#10151d" stroke-width="1.5"></circle><circle cx="727.00" cy="367.65" r="4.5" fill="#ff595e" stroke="#10151d" stroke-width="1.5"></circle><circle cx="944.00" cy="367.58" r="4.5" fill="#ff595e" stroke="#10151d" stroke-width="1.5"></circle><path d="M 76.00 367.74 L 293.00 367.72 L 510.00 367.70 L 727.00 367.66 L 944.00 367.58" fill="none" stroke="#8ac926" stroke-width="3" stroke-linecap="round" stroke-linejoin="round"></path><circle cx="76.00" cy="367.74" r="4.5" fill="#8ac926" stroke="#10151d" stroke-width="1.5"></circle><circle cx="293.00" cy="367.72" r="4.5" fill="#8ac926" stroke="#10151d" stroke-width="1.5"></circle><circle cx="510.00" cy="367.70" r="4.5" fill="#8ac926" stroke="#10151d" stroke-width="1.5"></circle><circle cx="727.00" cy="367.66" r="4.5" fill="#8ac926" stroke="#10151d" stroke-width="1.5"></circle><circle cx="944.00" cy="367.58" r="4.5" fill="#8ac926" stroke="#10151d" stroke-width="1.5"></circle>
</svg>
