<svg xmlns="http://www.w3.org/2000/svg" width="980" height="440" viewBox="0 0 980 440">
  <rect width="100%" height="100%" rx="22" fill="#111722"></rect>
  <text x="76" y="34" font-size="24" font-weight="700" fill="#f5f7fb">FlashMLA Decode 阶段迁移</text>
  <text x="76" y="56" font-size="13" fill="#9fb0c3">补充图：复用已有 detailed C++ profiler 结果；其中 1k/4k/8k 为 batch=2，16k/32k 为 batch=1。</text>
  <rect x="76" y="66" width="12" height="12" rx="3" fill="#2ec4b6"></rect><text x="94" y="76" font-size="13" fill="#dfe7f1">TRISC (compute)</text><rect x="240" y="66" width="12" height="12" rx="3" fill="#ff9f1c"></rect><text x="258" y="76" font-size="13" fill="#dfe7f1">BRISC (writer-side)</text><rect x="436" y="66" width="12" height="12" rx="3" fill="#5c7cfa"></rect><text x="454" y="76" font-size="13" fill="#dfe7f1">NCRISC (reader-side)</text>
  <line x1="76" y1="368.00" x2="944" y2="368.00" stroke="#273142" stroke-width="1"></line><text x="64" y="372.00" text-anchor="end" font-size="12" fill="#9fb0c3">0%</text><line x1="76" y1="296.50" x2="944" y2="296.50" stroke="#273142" stroke-width="1"></line><text x="64" y="300.50" text-anchor="end" font-size="12" fill="#9fb0c3">25%</text><line x1="76" y1="225.00" x2="944" y2="225.00" stroke="#273142" stroke-width="1"></line><text x="64" y="229.00" text-anchor="end" font-size="12" fill="#9fb0c3">50%</text><line x1="76" y1="153.50" x2="944" y2="153.50" stroke="#273142" stroke-width="1"></line><text x="64" y="157.50" text-anchor="end" font-size="12" fill="#9fb0c3">75%</text><line x1="76" y1="82.00" x2="944" y2="82.00" stroke="#273142" stroke-width="1"></line><text x="64" y="86.00" text-anchor="end" font-size="12" fill="#9fb0c3">100%</text>
  <line x1="76" y1="368" x2="944" y2="368" stroke="#5b6b80" stroke-width="1.2"></line><line x1="76" y1="82" x2="76" y2="368" stroke="#5b6b80" stroke-width="1.2"></line><text x="22" y="225.00" transform="rotate(-90 22 225.00)" font-size="13" fill="#c7d2df">Share of kernel window</text><text x="162.80" y="416" text-anchor="middle" font-size="12" fill="#c7d2df">1k</text><text x="336.40" y="416" text-anchor="middle" font-size="12" fill="#c7d2df">4k</text><text x="510.00" y="416" text-anchor="middle" font-size="12" fill="#c7d2df">8k</text><text x="683.60" y="416" text-anchor="middle" font-size="12" fill="#c7d2df">16k</text><text x="857.20" y="416" text-anchor="middle" font-size="12" fill="#c7d2df">32k</text>
  <rect x="127.80" y="83.02" width="70.00" height="284.98" fill="#2ec4b6" rx="4"></rect><rect x="127.80" y="-155.70" width="70.00" height="238.72" fill="#ff9f1c" rx="4"></rect><rect x="127.80" y="-261.70" width="70.00" height="106.00" fill="#5c7cfa" rx="4"></rect><rect x="301.40" y="82.43" width="70.00" height="285.57" fill="#2ec4b6" rx="4"></rect><rect x="301.40" y="-183.69" width="70.00" height="266.12" fill="#ff9f1c" rx="4"></rect><rect x="301.40" y="-364.35" width="70.00" height="180.66" fill="#5c7cfa" rx="4"></rect><rect x="475.00" y="82.24" width="70.00" height="285.76" fill="#2ec4b6" rx="4"></rect><rect x="475.00" y="-192.29" width="70.00" height="274.53" fill="#ff9f1c" rx="4"></rect><rect x="475.00" y="-417.37" width="70.00" height="225.08" fill="#5c7cfa" rx="4"></rect><rect x="648.60" y="82.14" width="70.00" height="285.86" fill="#2ec4b6" rx="4"></rect><rect x="648.60" y="-197.69" width="70.00" height="279.83" fill="#ff9f1c" rx="4"></rect><rect x="648.60" y="-451.48" width="70.00" height="253.79" fill="#5c7cfa" rx="4"></rect><rect x="822.20" y="82.07" width="70.00" height="285.93" fill="#2ec4b6" rx="4"></rect><rect x="822.20" y="-200.74" width="70.00" height="282.81" fill="#ff9f1c" rx="4"></rect><rect x="822.20" y="-470.56" width="70.00" height="269.82" fill="#5c7cfa" rx="4"></rect>
</svg>
