<svg xmlns="http://www.w3.org/2000/svg" width="920" height="420" viewBox="0 0 920 420">
  <rect width="100%" height="100%" rx="22" fill="#111722"></rect>
  <text x="72" y="34" font-size="24" font-weight="700" fill="#f5f7fb">Decode Reader Source Attribution</text>
  <text x="72" y="56" font-size="13" fill="#9fb0c3">`K reserve` 在 long-seq 点上成为 reader 内部第一大项，而 `V reserve` 始终很小。</text>
  <rect x="72" y="66" width="12" height="12" rx="3" fill="#1982c4"></rect><text x="90" y="76" font-size="13" fill="#dfe7f1">K issue</text><rect x="172" y="66" width="12" height="12" rx="3" fill="#ff595e"></rect><text x="190" y="76" font-size="13" fill="#dfe7f1">K reserve</text><rect x="288" y="66" width="12" height="12" rx="3" fill="#2ec4b6"></rect><text x="306" y="76" font-size="13" fill="#dfe7f1">V issue</text><rect x="388" y="66" width="12" height="12" rx="3" fill="#ffca3a"></rect><text x="406" y="76" font-size="13" fill="#dfe7f1">V reserve</text><rect x="504" y="66" width="12" height="12" rx="3" fill="#6c757d"></rect><text x="522" y="76" font-size="13" fill="#dfe7f1">other</text>
  <line x1="72" y1="352.00" x2="892" y2="352.00" stroke="#273142" stroke-width="1"></line><text x="60" y="356.00" text-anchor="end" font-size="12" fill="#9fb0c3">0%</text><line x1="72" y1="283.00" x2="892" y2="283.00" stroke="#273142" stroke-width="1"></line><text x="60" y="287.00" text-anchor="end" font-size="12" fill="#9fb0c3">25%</text><line x1="72" y1="214.00" x2="892" y2="214.00" stroke="#273142" stroke-width="1"></line><text x="60" y="218.00" text-anchor="end" font-size="12" fill="#9fb0c3">50%</text><line x1="72" y1="145.00" x2="892" y2="145.00" stroke="#273142" stroke-width="1"></line><text x="60" y="149.00" text-anchor="end" font-size="12" fill="#9fb0c3">75%</text><line x1="72" y1="76.00" x2="892" y2="76.00" stroke="#273142" stroke-width="1"></line><text x="60" y="80.00" text-anchor="end" font-size="12" fill="#9fb0c3">100%</text>
  <line x1="72" y1="352" x2="892" y2="352" stroke="#5b6b80" stroke-width="1.2"></line><line x1="72" y1="76" x2="72" y2="352" stroke="#5b6b80" stroke-width="1.2"></line><text x="20" y="214.00" transform="rotate(-90 20 214.00)" font-size="13" fill="#c7d2df">reader source share</text><text x="174.50" y="394" text-anchor="middle" font-size="12" fill="#c7d2df">1k</text><text x="379.50" y="394" text-anchor="middle" font-size="12" fill="#c7d2df">4k</text><text x="584.50" y="394" text-anchor="middle" font-size="12" fill="#c7d2df">16k</text><text x="789.50" y="394" text-anchor="middle" font-size="12" fill="#c7d2df">32k</text>
  <rect x="141.50" y="195.05" width="66.00" height="156.95" rx="8" fill="#1982c4"></rect><rect x="141.50" y="194.04" width="66.00" height="1.01" rx="8" fill="#ff595e"></rect><rect x="141.50" y="124.12" width="66.00" height="69.92" rx="8" fill="#2ec4b6"></rect><rect x="141.50" y="121.88" width="66.00" height="2.24" rx="8" fill="#ffca3a"></rect><rect x="141.50" y="76.00" width="66.00" height="45.88" rx="8" fill="#6c757d"></rect><rect x="346.50" y="245.20" width="66.00" height="106.80" rx="8" fill="#1982c4"></rect><rect x="346.50" y="157.86" width="66.00" height="87.34" rx="8" fill="#ff595e"></rect><rect x="346.50" y="109.52" width="66.00" height="48.34" rx="8" fill="#2ec4b6"></rect><rect x="346.50" y="107.99" width="66.00" height="1.53" rx="8" fill="#ffca3a"></rect><rect x="346.50" y="76.00" width="66.00" height="31.99" rx="8" fill="#6c757d"></rect><rect x="551.50" y="276.40" width="66.00" height="75.60" rx="8" fill="#1982c4"></rect><rect x="551.50" y="130.71" width="66.00" height="145.69" rx="8" fill="#ff595e"></rect><rect x="551.50" y="96.14" width="66.00" height="34.57" rx="8" fill="#2ec4b6"></rect><rect x="551.50" y="88.48" width="66.00" height="7.65" rx="8" fill="#ffca3a"></rect><rect x="551.50" y="76.00" width="66.00" height="12.48" rx="8" fill="#6c757d"></rect><rect x="756.50" y="279.96" width="66.00" height="72.04" rx="8" fill="#1982c4"></rect><rect x="756.50" y="128.66" width="66.00" height="151.30" rx="8" fill="#ff595e"></rect><rect x="756.50" y="95.65" width="66.00" height="33.01" rx="8" fill="#2ec4b6"></rect><rect x="756.50" y="87.91" width="66.00" height="7.74" rx="8" fill="#ffca3a"></rect><rect x="756.50" y="76.00" width="66.00" height="11.91" rx="8" fill="#6c757d"></rect>
</svg>
