<svg xmlns="http://www.w3.org/2000/svg" width="920" height="420" viewBox="0 0 920 420">
  <rect width="100%" height="100%" rx="22" fill="#111722"></rect>
  <text x="72" y="34" font-size="24" font-weight="700" fill="#f5f7fb">Decode Reader/Writer 反压信号</text>
  <text x="72" y="56" font-size="13" fill="#9fb0c3">reader reserve 在 4k 附近陡增，而 writer cb_wait 几乎全段贴边，说明主矛盾是 pipeline backpressure。</text>
  <rect x="72" y="66" width="12" height="12" rx="3" fill="#1982c4"></rect><text x="90" y="76" font-size="13" fill="#dfe7f1">reader issue</text><rect x="212" y="66" width="12" height="12" rx="3" fill="#ff595e"></rect><text x="230" y="76" font-size="13" fill="#dfe7f1">reader reserve</text><rect x="368" y="66" width="12" height="12" rx="3" fill="#6a4c93"></rect><text x="386" y="76" font-size="13" fill="#dfe7f1">writer cb_wait</text>
  <line x1="72" y1="352.00" x2="892" y2="352.00" stroke="#273142" stroke-width="1"></line><text x="60" y="356.00" text-anchor="end" font-size="12" fill="#9fb0c3">0%</text><line x1="72" y1="283.00" x2="892" y2="283.00" stroke="#273142" stroke-width="1"></line><text x="60" y="287.00" text-anchor="end" font-size="12" fill="#9fb0c3">25%</text><line x1="72" y1="214.00" x2="892" y2="214.00" stroke="#273142" stroke-width="1"></line><text x="60" y="218.00" text-anchor="end" font-size="12" fill="#9fb0c3">50%</text><line x1="72" y1="145.00" x2="892" y2="145.00" stroke="#273142" stroke-width="1"></line><text x="60" y="149.00" text-anchor="end" font-size="12" fill="#9fb0c3">75%</text><line x1="72" y1="76.00" x2="892" y2="76.00" stroke="#273142" stroke-width="1"></line><text x="60" y="80.00" text-anchor="end" font-size="12" fill="#9fb0c3">100%</text>
  <line x1="72" y1="352" x2="892" y2="352" stroke="#5b6b80" stroke-width="1.2"></line><line x1="72" y1="76" x2="72" y2="352" stroke="#5b6b80" stroke-width="1.2"></line><text x="20" y="214.00" transform="rotate(-90 20 214.00)" font-size="13" fill="#c7d2df">stage share</text><text x="72.00" y="394" text-anchor="middle" font-size="12" fill="#c7d2df">256</text><text x="189.14" y="394" text-anchor="middle" font-size="12" fill="#c7d2df">512</text><text x="306.29" y="394" text-anchor="middle" font-size="12" fill="#c7d2df">1k</text><text x="423.43" y="394" text-anchor="middle" font-size="12" fill="#c7d2df">2k</text><text x="540.57" y="394" text-anchor="middle" font-size="12" fill="#c7d2df">4k</text><text x="657.71" y="394" text-anchor="middle" font-size="12" fill="#c7d2df">8k</text><text x="774.86" y="394" text-anchor="middle" font-size="12" fill="#c7d2df">16k</text><text x="892.00" y="394" text-anchor="middle" font-size="12" fill="#c7d2df">32k</text>
  <path d="M 72.00 139.53 L 189.14 144.37 L 306.29 134.63 L 423.43 129.86 L 540.57 198.07 L 657.71 230.32 L 774.86 241.96 L 892.00 247.04" fill="none" stroke="#1982c4" stroke-width="3" stroke-linecap="round" stroke-linejoin="round"></path><circle cx="72.00" cy="139.53" r="4.5" fill="#1982c4" stroke="#10151d" stroke-width="1.5"></circle><circle cx="189.14" cy="144.37" r="4.5" fill="#1982c4" stroke="#10151d" stroke-width="1.5"></circle><circle cx="306.29" cy="134.63" r="4.5" fill="#1982c4" stroke="#10151d" stroke-width="1.5"></circle><circle cx="423.43" cy="129.86" r="4.5" fill="#1982c4" stroke="#10151d" stroke-width="1.5"></circle><circle cx="540.57" cy="198.07" r="4.5" fill="#1982c4" stroke="#10151d" stroke-width="1.5"></circle><circle cx="657.71" cy="230.32" r="4.5" fill="#1982c4" stroke="#10151d" stroke-width="1.5"></circle><circle cx="774.86" cy="241.96" r="4.5" fill="#1982c4" stroke="#10151d" stroke-width="1.5"></circle><circle cx="892.00" cy="247.04" r="4.5" fill="#1982c4" stroke="#10151d" stroke-width="1.5"></circle><path d="M 72.00 348.99 L 189.14 349.06 L 306.29 348.89 L 423.43 348.79 L 540.57 263.75 L 657.71 223.22 L 774.86 198.96 L 892.00 193.08" fill="none" stroke="#ff595e" stroke-width="3" stroke-linecap="round" stroke-linejoin="round"></path><circle cx="72.00" cy="348.99" r="4.5" fill="#ff595e" stroke="#10151d" stroke-width="1.5"></circle><circle cx="189.14" cy="349.06" r="4.5" fill="#ff595e" stroke="#10151d" stroke-width="1.5"></circle><circle cx="306.29" cy="348.89" r="4.5" fill="#ff595e" stroke="#10151d" stroke-width="1.5"></circle><circle cx="423.43" cy="348.79" r="4.5" fill="#ff595e" stroke="#10151d" stroke-width="1.5"></circle><circle cx="540.57" cy="263.75" r="4.5" fill="#ff595e" stroke="#10151d" stroke-width="1.5"></circle><circle cx="657.71" cy="223.22" r="4.5" fill="#ff595e" stroke="#10151d" stroke-width="1.5"></circle><circle cx="774.86" cy="198.96" r="4.5" fill="#ff595e" stroke="#10151d" stroke-width="1.5"></circle><circle cx="892.00" cy="193.08" r="4.5" fill="#ff595e" stroke="#10151d" stroke-width="1.5"></circle><path d="M 72.00 103.32 L 189.14 100.55 L 306.29 92.92 L 423.43 86.58 L 540.57 81.58 L 657.71 78.94 L 774.86 77.19 L 892.00 76.60" fill="none" stroke="#6a4c93" stroke-width="3" stroke-linecap="round" stroke-linejoin="round"></path><circle cx="72.00" cy="103.32" r="4.5" fill="#6a4c93" stroke="#10151d" stroke-width="1.5"></circle><circle cx="189.14" cy="100.55" r="4.5" fill="#6a4c93" stroke="#10151d" stroke-width="1.5"></circle><circle cx="306.29" cy="92.92" r="4.5" fill="#6a4c93" stroke="#10151d" stroke-width="1.5"></circle><circle cx="423.43" cy="86.58" r="4.5" fill="#6a4c93" stroke="#10151d" stroke-width="1.5"></circle><circle cx="540.57" cy="81.58" r="4.5" fill="#6a4c93" stroke="#10151d" stroke-width="1.5"></circle><circle cx="657.71" cy="78.94" r="4.5" fill="#6a4c93" stroke="#10151d" stroke-width="1.5"></circle><circle cx="774.86" cy="77.19" r="4.5" fill="#6a4c93" stroke="#10151d" stroke-width="1.5"></circle><circle cx="892.00" cy="76.60" r="4.5" fill="#6a4c93" stroke="#10151d" stroke-width="1.5"></circle>
</svg>
