<svg xmlns="http://www.w3.org/2000/svg" width="920" height="420" viewBox="0 0 920 420">
  <rect width="100%" height="100%" rx="22" fill="#111722"></rect>
  <text x="72" y="34" font-size="24" font-weight="700" fill="#f5f7fb">Decode Writer Source Attribution</text>
  <text x="72" y="56" font-size="13" fill="#9fb0c3">writer wait 基本稳定地均分在 sender local ready 与 tree child arrival 两段。</text>
  <rect x="72" y="66" width="12" height="12" rx="3" fill="#ff595e"></rect><text x="90" y="76" font-size="13" fill="#dfe7f1">sender_cb_wait</text><rect x="228" y="66" width="12" height="12" rx="3" fill="#1982c4"></rect><text x="246" y="76" font-size="13" fill="#dfe7f1">tree_child_wait</text><rect x="392" y="66" width="12" height="12" rx="3" fill="#ffca3a"></rect><text x="410" y="76" font-size="13" fill="#dfe7f1">root_cb_wait</text><rect x="532" y="66" width="12" height="12" rx="3" fill="#2ec4b6"></rect><text x="550" y="76" font-size="13" fill="#dfe7f1">output_gather_wait</text>
  <line x1="72" y1="352.00" x2="892" y2="352.00" stroke="#273142" stroke-width="1"></line><text x="60" y="356.00" text-anchor="end" font-size="12" fill="#9fb0c3">0%</text><line x1="72" y1="283.00" x2="892" y2="283.00" stroke="#273142" stroke-width="1"></line><text x="60" y="287.00" text-anchor="end" font-size="12" fill="#9fb0c3">25%</text><line x1="72" y1="214.00" x2="892" y2="214.00" stroke="#273142" stroke-width="1"></line><text x="60" y="218.00" text-anchor="end" font-size="12" fill="#9fb0c3">50%</text><line x1="72" y1="145.00" x2="892" y2="145.00" stroke="#273142" stroke-width="1"></line><text x="60" y="149.00" text-anchor="end" font-size="12" fill="#9fb0c3">75%</text><line x1="72" y1="76.00" x2="892" y2="76.00" stroke="#273142" stroke-width="1"></line><text x="60" y="80.00" text-anchor="end" font-size="12" fill="#9fb0c3">100%</text>
  <line x1="72" y1="352" x2="892" y2="352" stroke="#5b6b80" stroke-width="1.2"></line><line x1="72" y1="76" x2="72" y2="352" stroke="#5b6b80" stroke-width="1.2"></line><text x="20" y="214.00" transform="rotate(-90 20 214.00)" font-size="13" fill="#c7d2df">writer source share</text><text x="174.50" y="394" text-anchor="middle" font-size="12" fill="#c7d2df">1k</text><text x="379.50" y="394" text-anchor="middle" font-size="12" fill="#c7d2df">4k</text><text x="584.50" y="394" text-anchor="middle" font-size="12" fill="#c7d2df">16k</text><text x="789.50" y="394" text-anchor="middle" font-size="12" fill="#c7d2df">32k</text>
  <rect x="141.50" y="217.62" width="66.00" height="134.38" rx="8" fill="#ff595e"></rect><rect x="141.50" y="76.00" width="66.00" height="141.62" rx="8" fill="#1982c4"></rect><rect x="346.50" y="215.14" width="66.00" height="136.86" rx="8" fill="#ff595e"></rect><rect x="346.50" y="76.00" width="66.00" height="139.14" rx="8" fill="#1982c4"></rect><rect x="551.50" y="214.30" width="66.00" height="137.70" rx="8" fill="#ff595e"></rect><rect x="551.50" y="76.00" width="66.00" height="138.30" rx="8" fill="#1982c4"></rect><rect x="756.50" y="214.13" width="66.00" height="137.87" rx="8" fill="#ff595e"></rect><rect x="756.50" y="76.00" width="66.00" height="138.13" rx="8" fill="#1982c4"></rect>
</svg>
