<svg xmlns="http://www.w3.org/2000/svg" width="980" height="440" viewBox="0 0 980 440">
  <rect width="100%" height="100%" rx="22" fill="#111722"></rect>
  <text x="76" y="34" font-size="24" font-weight="700" fill="#f5f7fb">Part I Decode 吞吐量对比</text>
  <text x="76" y="56" font-size="13" fill="#9fb0c3">吞吐量按 tok/s 统计；decode 下等价于每秒生成 token 数；已剔除慢尾异常点。</text>
  <rect x="76" y="66" width="12" height="12" rx="3" fill="#6c757d"></rect><text x="94" y="76" font-size="13" fill="#dfe7f1">Reference Attention</text><rect x="272" y="66" width="12" height="12" rx="3" fill="#1982c4"></rect><text x="290" y="76" font-size="13" fill="#dfe7f1">Flash Attention</text><rect x="436" y="66" width="12" height="12" rx="3" fill="#ff595e"></rect><text x="454" y="76" font-size="13" fill="#dfe7f1">FlashMLA (TT Mainline)</text><rect x="656" y="66" width="12" height="12" rx="3" fill="#8ac926"></rect><text x="674" y="76" font-size="13" fill="#dfe7f1">DeepSeek FlashMLA</text>
  <line x1="76" y1="368.00" x2="944" y2="368.00" stroke="#273142" stroke-width="1"></line><text x="64" y="372.00" text-anchor="end" font-size="12" fill="#9fb0c3">0</text><line x1="76" y1="296.50" x2="944" y2="296.50" stroke="#273142" stroke-width="1"></line><text x="64" y="300.50" text-anchor="end" font-size="12" fill="#9fb0c3">8486</text><line x1="76" y1="225.00" x2="944" y2="225.00" stroke="#273142" stroke-width="1"></line><text x="64" y="229.00" text-anchor="end" font-size="12" fill="#9fb0c3">16972</text><line x1="76" y1="153.50" x2="944" y2="153.50" stroke="#273142" stroke-width="1"></line><text x="64" y="157.50" text-anchor="end" font-size="12" fill="#9fb0c3">25457</text><line x1="76" y1="82.00" x2="944" y2="82.00" stroke="#273142" stroke-width="1"></line><text x="64" y="86.00" text-anchor="end" font-size="12" fill="#9fb0c3">33943</text>
  <line x1="76" y1="368" x2="944" y2="368" stroke="#5b6b80" stroke-width="1.2"></line><line x1="76" y1="82" x2="76" y2="368" stroke="#5b6b80" stroke-width="1.2"></line><text x="22" y="225.00" transform="rotate(-90 22 225.00)" font-size="13" fill="#c7d2df">Throughput (tok/s)</text><text x="76.00" y="416" text-anchor="middle" font-size="12" fill="#c7d2df">256</text><text x="172.44" y="416" text-anchor="middle" font-size="12" fill="#c7d2df">512</text><text x="268.89" y="416" text-anchor="middle" font-size="12" fill="#c7d2df">1k</text><text x="365.33" y="416" text-anchor="middle" font-size="12" fill="#c7d2df">2k</text><text x="461.78" y="416" text-anchor="middle" font-size="12" fill="#c7d2df">4k</text><text x="558.22" y="416" text-anchor="middle" font-size="12" fill="#c7d2df">8k</text><text x="654.67" y="416" text-anchor="middle" font-size="12" fill="#c7d2df">16k</text><text x="751.11" y="416" text-anchor="middle" font-size="12" fill="#c7d2df">32k</text><text x="847.56" y="416" text-anchor="middle" font-size="12" fill="#c7d2df">64k</text><text x="944.00" y="416" text-anchor="middle" font-size="12" fill="#c7d2df">128k</text>
  <path d="M 76.00 366.83 L 172.44 367.38 L 268.89 367.70 L 365.33 367.85 L 461.78 367.92 L 558.22 367.96 L 654.67 367.98 L 751.11 367.99 L 847.56 368.00 L 944.00 368.00" fill="none" stroke="#6c757d" stroke-width="3" stroke-linecap="round" stroke-linejoin="round"></path><circle cx="76.00" cy="366.83" r="4.5" fill="#6c757d" stroke="#10151d" stroke-width="1.5"></circle><circle cx="172.44" cy="367.38" r="4.5" fill="#6c757d" stroke="#10151d" stroke-width="1.5"></circle><circle cx="268.89" cy="367.70" r="4.5" fill="#6c757d" stroke="#10151d" stroke-width="1.5"></circle><circle cx="365.33" cy="367.85" r="4.5" fill="#6c757d" stroke="#10151d" stroke-width="1.5"></circle><circle cx="461.78" cy="367.92" r="4.5" fill="#6c757d" stroke="#10151d" stroke-width="1.5"></circle><circle cx="558.22" cy="367.96" r="4.5" fill="#6c757d" stroke="#10151d" stroke-width="1.5"></circle><circle cx="654.67" cy="367.98" r="4.5" fill="#6c757d" stroke="#10151d" stroke-width="1.5"></circle><circle cx="751.11" cy="367.99" r="4.5" fill="#6c757d" stroke="#10151d" stroke-width="1.5"></circle><circle cx="847.56" cy="368.00" r="4.5" fill="#6c757d" stroke="#10151d" stroke-width="1.5"></circle><circle cx="944.00" cy="368.00" r="4.5" fill="#6c757d" stroke="#10151d" stroke-width="1.5"></circle><path d="M 76.00 108.48 L 172.44 111.53 L 268.89 149.79 L 365.33 179.33 L 461.78 211.25 L 558.22 262.23 L 654.67 358.81 L 751.11 360.92 L 847.56 362.68 L 944.00 364.10" fill="none" stroke="#1982c4" stroke-width="3" stroke-linecap="round" stroke-linejoin="round"></path><circle cx="76.00" cy="108.48" r="4.5" fill="#1982c4" stroke="#10151d" stroke-width="1.5"></circle><circle cx="172.44" cy="111.53" r="4.5" fill="#1982c4" stroke="#10151d" stroke-width="1.5"></circle><circle cx="268.89" cy="149.79" r="4.5" fill="#1982c4" stroke="#10151d" stroke-width="1.5"></circle><circle cx="365.33" cy="179.33" r="4.5" fill="#1982c4" stroke="#10151d" stroke-width="1.5"></circle><circle cx="461.78" cy="211.25" r="4.5" fill="#1982c4" stroke="#10151d" stroke-width="1.5"></circle><circle cx="558.22" cy="262.23" r="4.5" fill="#1982c4" stroke="#10151d" stroke-width="1.5"></circle><circle cx="654.67" cy="358.81" r="4.5" fill="#1982c4" stroke="#10151d" stroke-width="1.5"></circle><circle cx="751.11" cy="360.92" r="4.5" fill="#1982c4" stroke="#10151d" stroke-width="1.5"></circle><circle cx="847.56" cy="362.68" r="4.5" fill="#1982c4" stroke="#10151d" stroke-width="1.5"></circle><circle cx="944.00" cy="364.10" r="4.5" fill="#1982c4" stroke="#10151d" stroke-width="1.5"></circle><path d="M 76.00 103.19 L 172.44 113.22 L 268.89 150.94 L 365.33 178.06 L 461.78 206.62 L 558.22 259.31 L 654.67 299.33 L 751.11 362.03 L 847.56 362.33 L 944.00 362.85" fill="none" stroke="#ff595e" stroke-width="3" stroke-linecap="round" stroke-linejoin="round"></path><circle cx="76.00" cy="103.19" r="4.5" fill="#ff595e" stroke="#10151d" stroke-width="1.5"></circle><circle cx="172.44" cy="113.22" r="4.5" fill="#ff595e" stroke="#10151d" stroke-width="1.5"></circle><circle cx="268.89" cy="150.94" r="4.5" fill="#ff595e" stroke="#10151d" stroke-width="1.5"></circle><circle cx="365.33" cy="178.06" r="4.5" fill="#ff595e" stroke="#10151d" stroke-width="1.5"></circle><circle cx="461.78" cy="206.62" r="4.5" fill="#ff595e" stroke="#10151d" stroke-width="1.5"></circle><circle cx="558.22" cy="259.31" r="4.5" fill="#ff595e" stroke="#10151d" stroke-width="1.5"></circle><circle cx="654.67" cy="299.33" r="4.5" fill="#ff595e" stroke="#10151d" stroke-width="1.5"></circle><circle cx="751.11" cy="362.03" r="4.5" fill="#ff595e" stroke="#10151d" stroke-width="1.5"></circle><circle cx="847.56" cy="362.33" r="4.5" fill="#ff595e" stroke="#10151d" stroke-width="1.5"></circle><circle cx="944.00" cy="362.85" r="4.5" fill="#ff595e" stroke="#10151d" stroke-width="1.5"></circle><path d="M 76.00 107.53 L 172.44 133.85 L 268.89 171.25 L 365.33 190.43 L 461.78 204.08 L 558.22 253.02 L 654.67 363.46 L 751.11 356.16 L 847.56 361.44 L 944.00 362.30" fill="none" stroke="#8ac926" stroke-width="3" stroke-linecap="round" stroke-linejoin="round"></path><circle cx="76.00" cy="107.53" r="4.5" fill="#8ac926" stroke="#10151d" stroke-width="1.5"></circle><circle cx="172.44" cy="133.85" r="4.5" fill="#8ac926" stroke="#10151d" stroke-width="1.5"></circle><circle cx="268.89" cy="171.25" r="4.5" fill="#8ac926" stroke="#10151d" stroke-width="1.5"></circle><circle cx="365.33" cy="190.43" r="4.5" fill="#8ac926" stroke="#10151d" stroke-width="1.5"></circle><circle cx="461.78" cy="204.08" r="4.5" fill="#8ac926" stroke="#10151d" stroke-width="1.5"></circle><circle cx="558.22" cy="253.02" r="4.5" fill="#8ac926" stroke="#10151d" stroke-width="1.5"></circle><circle cx="654.67" cy="363.46" r="4.5" fill="#8ac926" stroke="#10151d" stroke-width="1.5"></circle><circle cx="751.11" cy="356.16" r="4.5" fill="#8ac926" stroke="#10151d" stroke-width="1.5"></circle><circle cx="847.56" cy="361.44" r="4.5" fill="#8ac926" stroke="#10151d" stroke-width="1.5"></circle><circle cx="944.00" cy="362.30" r="4.5" fill="#8ac926" stroke="#10151d" stroke-width="1.5"></circle>
</svg>
