<svg xmlns="http://www.w3.org/2000/svg" width="980" height="440" viewBox="0 0 980 440">
  <rect width="100%" height="100%" rx="22" fill="#111722"></rect>
  <text x="76" y="34" font-size="24" font-weight="700" fill="#f5f7fb">Part I Decode 相对 Reference 的速度提升</text>
  <text x="76" y="56" font-size="13" fill="#9fb0c3">Reference 基线固定为 1.0x；曲线越高代表相对 reference 越快；已剔除慢尾异常点。</text>
  <rect x="76" y="66" width="12" height="12" rx="3" fill="#6c757d"></rect><text x="94" y="76" font-size="13" fill="#dfe7f1">Reference = 1.0x</text><rect x="248" y="66" width="12" height="12" rx="3" fill="#1982c4"></rect><text x="266" y="76" font-size="13" fill="#dfe7f1">Flash / Reference</text><rect x="428" y="66" width="12" height="12" rx="3" fill="#ff595e"></rect><text x="446" y="76" font-size="13" fill="#dfe7f1">TT MLA / Reference</text><rect x="616" y="66" width="12" height="12" rx="3" fill="#8ac926"></rect><text x="634" y="76" font-size="13" fill="#dfe7f1">DeepSeek / Reference</text>
  <line x1="76" y1="368.00" x2="944" y2="368.00" stroke="#273142" stroke-width="1"></line><text x="64" y="372.00" text-anchor="end" font-size="12" fill="#9fb0c3">0.0x</text><line x1="76" y1="296.50" x2="944" y2="296.50" stroke="#273142" stroke-width="1"></line><text x="64" y="300.50" text-anchor="end" font-size="12" fill="#9fb0c3">959.9x</text><line x1="76" y1="225.00" x2="944" y2="225.00" stroke="#273142" stroke-width="1"></line><text x="64" y="229.00" text-anchor="end" font-size="12" fill="#9fb0c3">1919.8x</text><line x1="76" y1="153.50" x2="944" y2="153.50" stroke="#273142" stroke-width="1"></line><text x="64" y="157.50" text-anchor="end" font-size="12" fill="#9fb0c3">2879.6x</text><line x1="76" y1="82.00" x2="944" y2="82.00" stroke="#273142" stroke-width="1"></line><text x="64" y="86.00" text-anchor="end" font-size="12" fill="#9fb0c3">3839.5x</text>
  <line x1="76" y1="368" x2="944" y2="368" stroke="#5b6b80" stroke-width="1.2"></line><line x1="76" y1="82" x2="76" y2="368" stroke="#5b6b80" stroke-width="1.2"></line><text x="22" y="225.00" transform="rotate(-90 22 225.00)" font-size="13" fill="#c7d2df">Speedup (x)</text><text x="76.00" y="416" text-anchor="middle" font-size="12" fill="#c7d2df">256</text><text x="172.44" y="416" text-anchor="middle" font-size="12" fill="#c7d2df">512</text><text x="268.89" y="416" text-anchor="middle" font-size="12" fill="#c7d2df">1k</text><text x="365.33" y="416" text-anchor="middle" font-size="12" fill="#c7d2df">2k</text><text x="461.78" y="416" text-anchor="middle" font-size="12" fill="#c7d2df">4k</text><text x="558.22" y="416" text-anchor="middle" font-size="12" fill="#c7d2df">8k</text><text x="654.67" y="416" text-anchor="middle" font-size="12" fill="#c7d2df">16k</text><text x="751.11" y="416" text-anchor="middle" font-size="12" fill="#c7d2df">32k</text><text x="847.56" y="416" text-anchor="middle" font-size="12" fill="#c7d2df">64k</text><text x="944.00" y="416" text-anchor="middle" font-size="12" fill="#c7d2df">128k</text>
  <path d="M 76.00 367.93 L 172.44 367.93 L 268.89 367.93 L 365.33 367.93 L 461.78 367.93 L 558.22 367.93 L 654.67 367.93 L 751.11 367.93 L 847.56 367.93 L 944.00 367.93" fill="none" stroke="#6c757d" stroke-width="3" stroke-linecap="round" stroke-linejoin="round"></path><circle cx="76.00" cy="367.93" r="4.5" fill="#6c757d" stroke="#10151d" stroke-width="1.5"></circle><circle cx="172.44" cy="367.93" r="4.5" fill="#6c757d" stroke="#10151d" stroke-width="1.5"></circle><circle cx="268.89" cy="367.93" r="4.5" fill="#6c757d" stroke="#10151d" stroke-width="1.5"></circle><circle cx="365.33" cy="367.93" r="4.5" fill="#6c757d" stroke="#10151d" stroke-width="1.5"></circle><circle cx="461.78" cy="367.93" r="4.5" fill="#6c757d" stroke="#10151d" stroke-width="1.5"></circle><circle cx="558.22" cy="367.93" r="4.5" fill="#6c757d" stroke="#10151d" stroke-width="1.5"></circle><circle cx="654.67" cy="367.93" r="4.5" fill="#6c757d" stroke="#10151d" stroke-width="1.5"></circle><circle cx="751.11" cy="367.93" r="4.5" fill="#6c757d" stroke="#10151d" stroke-width="1.5"></circle><circle cx="847.56" cy="367.93" r="4.5" fill="#6c757d" stroke="#10151d" stroke-width="1.5"></circle><circle cx="944.00" cy="367.93" r="4.5" fill="#6c757d" stroke="#10151d" stroke-width="1.5"></circle><path d="M 76.00 351.42 L 172.44 337.05 L 268.89 313.83 L 365.33 277.29 L 461.78 217.35 L 558.22 165.14 L 654.67 332.57 L 751.11 314.20 L 847.56 288.20 L 944.00 249.79" fill="none" stroke="#1982c4" stroke-width="3" stroke-linecap="round" stroke-linejoin="round"></path><circle cx="76.00" cy="351.42" r="4.5" fill="#1982c4" stroke="#10151d" stroke-width="1.5"></circle><circle cx="172.44" cy="337.05" r="4.5" fill="#1982c4" stroke="#10151d" stroke-width="1.5"></circle><circle cx="268.89" cy="313.83" r="4.5" fill="#1982c4" stroke="#10151d" stroke-width="1.5"></circle><circle cx="365.33" cy="277.29" r="4.5" fill="#1982c4" stroke="#10151d" stroke-width="1.5"></circle><circle cx="461.78" cy="217.35" r="4.5" fill="#1982c4" stroke="#10151d" stroke-width="1.5"></circle><circle cx="558.22" cy="165.14" r="4.5" fill="#1982c4" stroke="#10151d" stroke-width="1.5"></circle><circle cx="654.67" cy="332.57" r="4.5" fill="#1982c4" stroke="#10151d" stroke-width="1.5"></circle><circle cx="751.11" cy="314.20" r="4.5" fill="#1982c4" stroke="#10151d" stroke-width="1.5"></circle><circle cx="847.56" cy="288.20" r="4.5" fill="#1982c4" stroke="#10151d" stroke-width="1.5"></circle><circle cx="944.00" cy="249.79" r="4.5" fill="#1982c4" stroke="#10151d" stroke-width="1.5"></circle><path d="M 76.00 351.09 L 172.44 337.26 L 268.89 314.12 L 365.33 276.68 L 461.78 212.90 L 558.22 159.56 L 654.67 103.19 L 751.11 322.64 L 847.56 282.96 L 944.00 211.64" fill="none" stroke="#ff595e" stroke-width="3" stroke-linecap="round" stroke-linejoin="round"></path><circle cx="76.00" cy="351.09" r="4.5" fill="#ff595e" stroke="#10151d" stroke-width="1.5"></circle><circle cx="172.44" cy="337.26" r="4.5" fill="#ff595e" stroke="#10151d" stroke-width="1.5"></circle><circle cx="268.89" cy="314.12" r="4.5" fill="#ff595e" stroke="#10151d" stroke-width="1.5"></circle><circle cx="365.33" cy="276.68" r="4.5" fill="#ff595e" stroke="#10151d" stroke-width="1.5"></circle><circle cx="461.78" cy="212.90" r="4.5" fill="#ff595e" stroke="#10151d" stroke-width="1.5"></circle><circle cx="558.22" cy="159.56" r="4.5" fill="#ff595e" stroke="#10151d" stroke-width="1.5"></circle><circle cx="654.67" cy="103.19" r="4.5" fill="#ff595e" stroke="#10151d" stroke-width="1.5"></circle><circle cx="751.11" cy="322.64" r="4.5" fill="#ff595e" stroke="#10151d" stroke-width="1.5"></circle><circle cx="847.56" cy="282.96" r="4.5" fill="#ff595e" stroke="#10151d" stroke-width="1.5"></circle><circle cx="944.00" cy="211.64" r="4.5" fill="#ff595e" stroke="#10151d" stroke-width="1.5"></circle><path d="M 76.00 351.36 L 172.44 339.75 L 268.89 319.16 L 365.33 282.62 L 461.78 210.46 L 558.22 147.49 L 654.67 350.50 L 751.11 278.06 L 847.56 269.60 L 944.00 194.99" fill="none" stroke="#8ac926" stroke-width="3" stroke-linecap="round" stroke-linejoin="round"></path><circle cx="76.00" cy="351.36" r="4.5" fill="#8ac926" stroke="#10151d" stroke-width="1.5"></circle><circle cx="172.44" cy="339.75" r="4.5" fill="#8ac926" stroke="#10151d" stroke-width="1.5"></circle><circle cx="268.89" cy="319.16" r="4.5" fill="#8ac926" stroke="#10151d" stroke-width="1.5"></circle><circle cx="365.33" cy="282.62" r="4.5" fill="#8ac926" stroke="#10151d" stroke-width="1.5"></circle><circle cx="461.78" cy="210.46" r="4.5" fill="#8ac926" stroke="#10151d" stroke-width="1.5"></circle><circle cx="558.22" cy="147.49" r="4.5" fill="#8ac926" stroke="#10151d" stroke-width="1.5"></circle><circle cx="654.67" cy="350.50" r="4.5" fill="#8ac926" stroke="#10151d" stroke-width="1.5"></circle><circle cx="751.11" cy="278.06" r="4.5" fill="#8ac926" stroke="#10151d" stroke-width="1.5"></circle><circle cx="847.56" cy="269.60" r="4.5" fill="#8ac926" stroke="#10151d" stroke-width="1.5"></circle><circle cx="944.00" cy="194.99" r="4.5" fill="#8ac926" stroke="#10151d" stroke-width="1.5"></circle>
</svg>
